<svg width="386" height="127" viewBox="0 0 386 127" fill="none" xmlns="http://www.w3.org/2000/svg">
<path d="M0.921875 100H13.1562V1.5625H0.921875V100ZM20.1875 100.141H31.8594C42.8281 100.141 51.0312 96.1562 56.4688 88.1875C59.75 83.3125 61.3906 77.8281 61.3906 71.7344C61.2969 62.7344 57.9688 55.7031 51.4062 50.6406C56.75 46.7031 59.8906 40.9844 60.8281 33.4844C61.0156 32.1719 61.1094 30.9062 61.1094 29.6875C61.1094 20.875 58.0625 13.7969 51.9688 8.45312C46.7188 3.85938 39.9219 1.5625 31.5781 1.5625H20.1875V12.5312H30.1719C38.1406 12.5312 43.7188 15.7656 46.9062 22.2344C48.2188 24.8594 48.875 27.5781 48.875 30.3906C48.875 38.5469 44.9844 43.3281 37.2031 44.7344C35.7969 45.0156 34.2969 45.1562 32.7031 45.1562H20.1875V56.125H32.7031C41.5156 56.125 46.8125 59.5938 48.5938 66.5312C48.9688 67.9375 49.1562 69.4375 49.1562 71.0312C49.1562 77.5938 46.4844 82.5625 41.1406 85.9375C37.4844 88.0938 32.9844 89.1719 27.6406 89.1719H20.1875V100.141ZM71.7969 79.1875V44.4531C71.7969 40.0469 73.7656 35.7344 77.7031 31.5156C82.5781 26.4531 88.6719 23.9219 95.9844 23.9219V35.3125C90.4531 35.3125 86.6094 37.6094 84.4531 42.2031C83.7969 43.6094 83.4688 45.0156 83.4688 46.4219V77.3594C83.4688 80.8281 85.0625 83.7812 88.25 86.2188C90.5 87.9062 93.0781 88.75 95.9844 88.75V100.141C87.0781 100.141 80.1875 96.5312 75.3125 89.3125C72.9688 85.75 71.7969 82.375 71.7969 79.1875ZM102.031 100.141V88.75C107 88.75 110.562 86.5 112.719 82C113.469 80.5 113.844 79.0469 113.844 77.6406V46.4219C113.844 42.5781 112.203 39.5312 108.922 37.2812C106.859 35.9688 104.516 35.3125 101.891 35.3125V23.9219C110.516 23.9219 117.172 27.4375 121.859 34.4688C124.203 37.9375 125.375 41.2656 125.375 44.4531V79.1875C125.375 83.7812 123.406 88.2344 119.469 92.5469C114.875 97.5156 109.062 100.047 102.031 100.141ZM136.062 79.1875V44.4531C136.062 40.0469 138.031 35.7344 141.969 31.5156C146.844 26.4531 152.938 23.9219 160.25 23.9219V35.3125C154.719 35.3125 150.875 37.6094 148.719 42.2031C148.062 43.6094 147.734 45.0156 147.734 46.4219V77.3594C147.734 80.8281 149.328 83.7812 152.516 86.2188C154.766 87.9062 157.344 88.75 160.25 88.75V100.141C151.344 100.141 144.453 96.5312 139.578 89.3125C137.234 85.75 136.062 82.375 136.062 79.1875ZM166.297 100.141V88.75C171.266 88.75 174.828 86.5 176.984 82C177.734 80.5 178.109 79.0469 178.109 77.6406V46.4219C178.109 42.5781 176.469 39.5312 173.188 37.2812C171.125 35.9688 168.781 35.3125 166.156 35.3125V23.9219C174.781 23.9219 181.438 27.4375 186.125 34.4688C188.469 37.9375 189.641 41.2656 189.641 44.4531V79.1875C189.641 83.7812 187.672 88.2344 183.734 92.5469C179.141 97.5156 173.328 100.047 166.297 100.141ZM200.75 100V0.71875H212.844V100H200.75ZM216.359 61.8906L245.047 24.0625H259.25L230.281 61.8906L259.391 100H245.328L216.359 61.8906ZM268.672 13.5156C268.672 10.6094 270.031 8.54687 272.75 7.32812C273.688 6.95313 274.625 6.76562 275.562 6.76562C278.375 6.76562 280.438 8.07813 281.75 10.7031C282.125 11.6406 282.312 12.5781 282.312 13.5156C282.312 16.3281 281 18.3906 278.375 19.7031C277.438 20.0781 276.5 20.2656 275.562 20.2656C272.656 20.2656 270.547 18.9531 269.234 16.3281C268.859 15.3906 268.672 14.4531 268.672 13.5156ZM269.656 100V25.8906H281.469V100H269.656ZM292.016 41.6406V30.1094H301.297V21.9531C301.297 16.7031 303.031 11.9219 306.5 7.60938C310.344 3.10938 315.312 0.8125 321.406 0.71875H326.609L323.938 12.1094H321.266C315.922 12.3906 313.203 15.6719 313.109 21.9531V30.25L322.672 30.1094V41.6406H313.109V100H301.297V41.6406H292.016ZM328.859 23.9219H341.375L362.75 83.4062L348.266 126.719H336.312L350.094 83.2656L328.859 23.9219ZM359.938 56.5469L372.734 23.9219H385.109L366.406 73H365.141L359.938 56.5469Z" fill="black"/>
</svg>
